<mxfile host="app.diagrams.net" modified="2020-09-17T12:09:28.948Z" agent="5.0 (Windows NT 10.0; Win64; x64) AppleWebKit/537.36 (KHTML, like Gecko) Chrome/85.0.4183.102 Safari/537.36" etag="h5vl8JZlT7e3m9byQa0F" version="13.7.2" type="github">
  <diagram id="Y0GfzL_gitvhp7PauEFV" name="Page-1">
    <mxGraphModel dx="981" dy="514" grid="1" gridSize="10" guides="1" tooltips="1" connect="1" arrows="1" fold="1" page="1" pageScale="1" pageWidth="827" pageHeight="1169" math="0" shadow="0">
      <root>
        <mxCell id="0" />
        <mxCell id="1" parent="0" />
        <mxCell id="fXo4W9mDPyM3kZSVokdo-14" value="" style="edgeStyle=orthogonalEdgeStyle;rounded=0;orthogonalLoop=1;jettySize=auto;html=1;exitX=1;exitY=0.5;exitDx=0;exitDy=0;" parent="1" source="fXo4W9mDPyM3kZSVokdo-2" target="fXo4W9mDPyM3kZSVokdo-4" edge="1">
          <mxGeometry relative="1" as="geometry">
            <Array as="points">
              <mxPoint x="180" y="190" />
              <mxPoint x="180" y="190" />
            </Array>
          </mxGeometry>
        </mxCell>
        <mxCell id="fXo4W9mDPyM3kZSVokdo-18" value="Очередь 1: &lt;i&gt;+N&lt;/i&gt;" style="edgeLabel;html=1;align=center;verticalAlign=middle;resizable=0;points=[];" parent="fXo4W9mDPyM3kZSVokdo-14" vertex="1" connectable="0">
          <mxGeometry x="-0.7143" y="-2" relative="1" as="geometry">
            <mxPoint x="27.43" y="-12" as="offset" />
          </mxGeometry>
        </mxCell>
        <mxCell id="fXo4W9mDPyM3kZSVokdo-19" value="" style="edgeStyle=orthogonalEdgeStyle;rounded=0;orthogonalLoop=1;jettySize=auto;html=1;" parent="1" source="fXo4W9mDPyM3kZSVokdo-2" target="fXo4W9mDPyM3kZSVokdo-4" edge="1">
          <mxGeometry relative="1" as="geometry" />
        </mxCell>
        <mxCell id="fXo4W9mDPyM3kZSVokdo-2" value="Квадратик&amp;nbsp;1" style="rounded=0;whiteSpace=wrap;html=1;" parent="1" vertex="1">
          <mxGeometry x="100" y="160" width="70" height="60" as="geometry" />
        </mxCell>
        <mxCell id="fXo4W9mDPyM3kZSVokdo-3" value="Квадратик&lt;span&gt;&amp;nbsp;2&lt;/span&gt;" style="rounded=0;whiteSpace=wrap;html=1;" parent="1" vertex="1">
          <mxGeometry x="520" y="160" width="70" height="60" as="geometry" />
        </mxCell>
        <mxCell id="fXo4W9mDPyM3kZSVokdo-4" value="Вентиль вызова" style="rounded=0;whiteSpace=wrap;html=1;" parent="1" vertex="1">
          <mxGeometry x="260" y="160" width="98" height="60" as="geometry" />
        </mxCell>
        <mxCell id="fXo4W9mDPyM3kZSVokdo-5" value="" style="endArrow=classic;html=1;entryX=0;entryY=0.5;entryDx=0;entryDy=0;" parent="1" target="fXo4W9mDPyM3kZSVokdo-2" edge="1">
          <mxGeometry width="50" height="50" relative="1" as="geometry">
            <mxPoint x="40" y="190" as="sourcePoint" />
            <mxPoint x="-20" y="260" as="targetPoint" />
          </mxGeometry>
        </mxCell>
        <mxCell id="fXo4W9mDPyM3kZSVokdo-7" value="" style="endArrow=classic;html=1;entryX=0;entryY=0.5;entryDx=0;entryDy=0;exitX=1;exitY=0.5;exitDx=0;exitDy=0;" parent="1" source="fXo4W9mDPyM3kZSVokdo-4" edge="1">
          <mxGeometry width="50" height="50" relative="1" as="geometry">
            <mxPoint x="340" y="189.71000000000004" as="sourcePoint" />
            <mxPoint x="390" y="189.71000000000004" as="targetPoint" />
          </mxGeometry>
        </mxCell>
        <mxCell id="fXo4W9mDPyM3kZSVokdo-8" value="" style="endArrow=classic;html=1;" parent="1" target="fXo4W9mDPyM3kZSVokdo-3" edge="1">
          <mxGeometry width="50" height="50" relative="1" as="geometry">
            <mxPoint x="470" y="189.71000000000004" as="sourcePoint" />
            <mxPoint x="520" y="189.71000000000004" as="targetPoint" />
          </mxGeometry>
        </mxCell>
        <mxCell id="fXo4W9mDPyM3kZSVokdo-9" value="" style="endArrow=classic;html=1;entryX=0;entryY=0.5;entryDx=0;entryDy=0;" parent="1" source="fXo4W9mDPyM3kZSVokdo-3" target="fXo4W9mDPyM3kZSVokdo-10" edge="1">
          <mxGeometry width="50" height="50" relative="1" as="geometry">
            <mxPoint x="640" y="189.71000000000004" as="sourcePoint" />
            <mxPoint x="690" y="189.71000000000004" as="targetPoint" />
          </mxGeometry>
        </mxCell>
        <mxCell id="fXo4W9mDPyM3kZSVokdo-23" value="Очередь 3:&amp;nbsp;&lt;i&gt;+1&lt;/i&gt;" style="edgeLabel;html=1;align=center;verticalAlign=middle;resizable=0;points=[];" parent="fXo4W9mDPyM3kZSVokdo-9" vertex="1" connectable="0">
          <mxGeometry x="0.5872" y="-1" relative="1" as="geometry">
            <mxPoint x="-23.14" y="-11" as="offset" />
          </mxGeometry>
        </mxCell>
        <mxCell id="fXo4W9mDPyM3kZSVokdo-10" value="&lt;span&gt;Квадратик 3&lt;/span&gt;" style="rounded=0;whiteSpace=wrap;html=1;" parent="1" vertex="1">
          <mxGeometry x="670" y="160" width="70" height="60" as="geometry" />
        </mxCell>
        <mxCell id="fXo4W9mDPyM3kZSVokdo-11" value="" style="endArrow=classic;html=1;exitX=1;exitY=0.5;exitDx=0;exitDy=0;entryX=0;entryY=0.5;entryDx=0;entryDy=0;" parent="1" source="fXo4W9mDPyM3kZSVokdo-10" target="fXo4W9mDPyM3kZSVokdo-4" edge="1">
          <mxGeometry width="50" height="50" relative="1" as="geometry">
            <mxPoint x="590" y="340" as="sourcePoint" />
            <mxPoint x="220" y="190" as="targetPoint" />
            <Array as="points">
              <mxPoint x="770" y="190" />
              <mxPoint x="770" y="220" />
              <mxPoint x="770" y="240" />
              <mxPoint x="630" y="240" />
              <mxPoint x="210" y="240" />
              <mxPoint x="210" y="190" />
            </Array>
          </mxGeometry>
        </mxCell>
        <mxCell id="fXo4W9mDPyM3kZSVokdo-12" value="Очередь 4: &lt;i&gt;+1&lt;/i&gt;" style="edgeLabel;html=1;align=center;verticalAlign=middle;resizable=0;points=[];" parent="fXo4W9mDPyM3kZSVokdo-11" vertex="1" connectable="0">
          <mxGeometry x="0.3554" y="1" relative="1" as="geometry">
            <mxPoint as="offset" />
          </mxGeometry>
        </mxCell>
        <mxCell id="fXo4W9mDPyM3kZSVokdo-20" value="Очередь 2: &lt;i&gt;+1&lt;/i&gt;" style="edgeLabel;html=1;align=center;verticalAlign=middle;resizable=0;points=[];" parent="1" vertex="1" connectable="0">
          <mxGeometry x="399.9985714285713" y="180" as="geometry" />
        </mxCell>
        <mxCell id="fXo4W9mDPyM3kZSVokdo-21" value="" style="endArrow=none;dashed=1;html=1;dashPattern=1 3;strokeWidth=2;" parent="1" edge="1">
          <mxGeometry width="50" height="50" relative="1" as="geometry">
            <mxPoint x="390" y="190" as="sourcePoint" />
            <mxPoint x="470" y="190" as="targetPoint" />
          </mxGeometry>
        </mxCell>
        <mxCell id="fXo4W9mDPyM3kZSVokdo-25" value="" style="endArrow=classic;html=1;exitX=1;exitY=0.5;exitDx=0;exitDy=0;" parent="1" source="fXo4W9mDPyM3kZSVokdo-10" edge="1">
          <mxGeometry width="50" height="50" relative="1" as="geometry">
            <mxPoint x="760" y="210" as="sourcePoint" />
            <mxPoint x="790" y="190" as="targetPoint" />
          </mxGeometry>
        </mxCell>
      </root>
    </mxGraphModel>
  </diagram>
</mxfile>
